<?xml version="1.0" standalone="no"?>
<!DOCTYPE svg PUBLIC "-//W3C//DTD SVG 20010904//EN"
 "http://www.w3.org/TR/2001/REC-SVG-20010904/DTD/svg10.dtd">
<svg version="1.0" xmlns="http://www.w3.org/2000/svg"
 width="256.000000pt" height="256.000000pt" viewBox="0 0 256.000000 256.000000"
 preserveAspectRatio="xMidYMid meet">

<g transform="translate(0.000000,256.000000) scale(0.100000,-0.100000)"
fill="#000000" stroke="none">
<path d="M1115 2029 c-145 -21 -235 -71 -235 -129 0 -38 55 -85 123 -105 215
-62 546 -38 642 46 116 102 -71 201 -375 198 -52 -1 -122 -5 -155 -10z m380
-89 c59 -16 95 -31 95 -40 0 -4 -12 -12 -27 -18 -146 -57 -493 -52 -583 8 -13
9 -13 11 0 20 19 13 81 30 145 41 66 10 319 3 370 -11z"/>
<path d="M130 1945 c-22 -27 22 -257 74 -386 22 -53 23 -60 8 -54 -81 31 -101
11 -84 -87 15 -88 61 -186 113 -240 21 -23 39 -43 39 -45 0 -1 -18 -3 -39 -3
-22 0 -46 -3 -55 -6 -56 -22 42 -164 167 -242 l47 -30 -50 -42 c-51 -43 -64
-76 -37 -98 45 -38 225 -53 313 -27 50 14 170 91 238 153 l37 32 -56 63 c-143
157 -200 398 -136 566 11 30 20 55 18 56 -1 1 -36 7 -77 13 -119 19 -185 58
-277 160 -43 48 -105 120 -137 160 -58 72 -83 85 -106 57z"/>
<path d="M2324 1888 c-32 -40 -94 -112 -136 -160 -91 -102 -159 -141 -278
-160 -41 -6 -76 -12 -77 -13 -2 -1 7 -26 18 -56 64 -168 7 -409 -135 -566
l-56 -61 47 -42 c129 -114 225 -159 338 -160 72 0 178 22 202 42 26 21 14 56
-32 94 -25 20 -45 40 -45 44 0 4 21 22 48 38 26 17 66 50 88 74 41 42 94 116
94 130 0 20 -36 38 -76 38 -24 0 -44 2 -44 3 0 2 19 23 42 47 51 55 94 148
110 239 17 97 -3 117 -84 86 -15 -6 -14 1 8 54 52 129 96 359 74 386 -23 28
-48 15 -106 -57z"/>
<path d="M930 1611 c-174 -62 -219 -268 -110 -496 67 -138 188 -248 340 -308
103 -40 125 -41 216 -9 164 58 294 171 364 317 87 181 80 338 -19 437 -105
105 -264 98 -399 -17 l-42 -37 -42 37 c-96 82 -211 110 -308 76z"/>
</g>
</svg>
