<?xml version="1.0" encoding="utf-8" ?>
<svg xmlns="http://www.w3.org/2000/svg" xmlns:xlink="http://www.w3.org/1999/xlink" width="3615" height="3615">
	<path fill="#60241F" transform="scale(3.53076 3.53076)" d="M75.0754 297.057C76.0945 296.939 77.1131 296.894 78.1314 297.048C83.5915 297.874 95.6529 310.589 100.799 314.736C118.803 329.243 139.279 342.345 159.883 352.84C187.027 366.666 217.922 375.736 247.465 382.86Q266.349 387.299 285.447 390.699C309.045 394.941 336.72 398.156 357.587 410.724C364.048 414.615 368.587 419.162 373.09 425.177C377.475 416.074 386.373 408.229 394.59 402.62C412.67 390.277 434.364 386.527 455.759 390.737C480.95 395.695 498.081 411.766 511.856 432.48C517.236 423.54 524.632 415.326 532.774 408.814C551.102 394.157 573.83 387.885 597.077 390.483C620.942 393.149 637.806 403.556 652.552 422.078C678.745 394.346 742.192 392.721 778.565 383.634C808.253 376.217 837.423 366.378 864.611 352.218Q883.906 342.174 901.843 329.868Q914.336 321.241 926.117 311.664C931.051 307.611 935.883 302.905 941.194 299.37C942.789 298.308 944.275 297.703 946.181 297.515C948.392 297.298 950.529 297.674 952.229 299.194C954.342 301.085 955.18 303.975 955.326 306.723C955.597 311.825 953.61 317.448 952.179 322.329C944.556 348.319 930.411 369.173 912.346 388.954C920.303 387.199 942.876 380.257 949.623 381.833C952.099 382.411 954.427 383.897 955.672 386.153C957.465 389.401 956.802 393.356 955.813 396.747C947.932 423.773 927.473 445.497 903.232 458.931C911.946 459.001 926.15 457.85 933.907 461.286C936.287 462.34 938.447 464.128 939.284 466.667C940.512 470.392 938.778 474.504 937.004 477.762C923.905 501.825 901.513 513.021 876.407 520.462C885.345 524.264 897.048 525.245 904.501 531.708C905.278 533.876 906.021 535.968 905.665 538.303C904.809 543.927 900.029 548.162 895.713 551.405C879.75 563.399 854.84 574.321 834.398 571.424C841.488 575.716 857.817 585.741 862.44 592.051C863.886 594.024 863.706 596.281 863.27 598.578C862.687 601.645 860.75 603.878 858.151 605.508C843.991 614.388 811.439 614.952 795.387 611.239C800.57 614.797 805.698 618.73 809.959 623.372C811.967 625.56 812.789 626.645 812.602 629.724C812.594 629.852 812.472 631.382 812.517 631.589C812.868 633.225 822.902 632.37 825.08 632.374L862.111 632.777C874.537 632.86 887.817 631.903 899.973 634.65C905.777 635.962 910.449 638.264 915.298 641.662C926.338 651.545 932.932 665.642 944.596 674.611C952.783 680.906 966.516 683.448 972.429 688.392C972.322 689.632 972.207 691.435 971.441 692.477C970.025 694.399 964.154 696.125 961.895 697.067C949.799 702.109 938.812 709.255 931.647 720.53C928.739 725.105 926.312 730.004 923.114 734.393C916.059 744.075 906.116 750.893 894.167 752.73C886.575 753.898 878.677 753.458 871.009 753.447L836.39 753.343L715.646 753.018Q494.695 755.798 273.729 754.993L179.688 754.791C164.004 754.773 137.434 756.482 123.028 752.96C98.7468 747.025 94.9759 721.535 77.9963 707.162C74.8354 704.486 70.9399 701.487 67.1638 699.774C62.1437 697.496 55.8981 696.4 51.4569 693.146C50.8916 691.892 50.5093 690.841 50.465 689.448C50.4096 687.704 51.2711 686.431 52.7406 685.576C55.2319 684.126 58.944 683.884 61.7426 683.12C65.9235 681.979 69.8528 680.228 73.6021 678.063C89.2736 669.013 90.1963 657.793 101.572 646.298Q102.582 645.271 103.658 644.313Q104.734 643.355 105.87 642.471Q107.007 641.586 108.2 640.779Q109.392 639.971 110.636 639.244Q111.879 638.517 113.168 637.874Q114.457 637.231 115.785 636.674Q117.114 636.118 118.476 635.65Q119.839 635.182 121.229 634.806C133.193 631.605 147.368 632.988 159.694 633.004L209.437 633.047Q209.462 631.73 209.565 630.416C210.1 624.27 224.625 615.255 229.429 611.122C219.081 612.775 209.022 613.275 198.561 612.393C189.64 611.64 170.085 608.866 164.169 601.403C162.771 599.639 162.244 597.49 162.652 595.277C164.039 587.749 183.25 576.004 189.734 571.405C173.437 571.812 157.651 568.786 142.902 561.831C135.205 558.202 118.253 548.61 115.531 540.009C114.935 538.128 115.091 536.175 116.04 534.439C119.66 527.818 141.341 522.41 149.062 519.849C127.088 513.61 114.247 510.245 97.5091 493.229C92.2376 487.87 83.4773 478.551 83.8045 470.474Q83.8205 470.009 83.8864 469.548Q83.9522 469.087 84.0672 468.636Q84.1821 468.185 84.3448 467.749Q84.5075 467.313 84.7161 466.897Q84.9247 466.481 85.1767 466.09Q85.4287 465.699 85.7213 465.337Q86.0139 464.975 86.3437 464.647Q86.6734 464.318 87.0365 464.027C90.888 460.879 117.474 458.847 123.405 459.418Q117.933 456.3 112.715 452.773C95.8461 441.222 82.9396 426.3 74.1487 407.842C71.7228 402.748 69.432 397.504 68.4031 391.932C69.4749 387.614 70.6586 385.727 74.2464 382.997C86.7945 382.927 100.977 387.834 113.624 389.658C107.93 381.761 99.922 375.107 93.8787 366.53C85.6421 354.841 65.4788 317.486 68.2275 304.686C69.0505 300.854 72.0036 299.01 75.0754 297.057Z"/>
	<path fill="#FEFEFE" transform="scale(3.53076 3.53076)" d="M440.887 591.81C459.015 606.839 482.17 626.233 495.55 645.543C499.415 651.121 502.772 657.1 505.985 663.071C508.089 666.98 509.946 671.196 512.679 674.706C512.803 674.866 512.934 675.022 513.061 675.18C515.634 671.589 517.198 667.006 519.094 663.014Q522.935 654.911 527.596 647.25C541.268 625.101 561.69 608.696 581.044 591.821C584.278 600.398 587.437 609.056 591.612 617.232C596.892 627.568 603.766 637.91 615.474 641.416C616.86 641.831 617.436 641.874 618.705 641.158C621.661 639.488 628.872 641.195 632.45 641.414C629.293 638.062 626.087 635.28 622.169 632.843C623.969 628.93 625.528 624.952 627.071 620.935C631.323 628.046 635.887 634.914 640.209 641.968L810.981 642.269L862.402 642.623C871.57 642.698 880.951 642.373 890.085 643.06C894.019 643.356 898.486 643.987 902.143 645.482C915.424 650.91 921.072 665.248 930.609 674.896C937.619 681.987 945.633 686.466 954.686 690.412C940.528 697.02 930.231 705.379 921.991 718.728C918.605 724.214 915.477 729.65 910.861 734.224Q909.99 735.098 909.052 735.902Q908.115 736.705 907.117 737.432Q906.12 738.159 905.068 738.805Q904.016 739.451 902.917 740.013Q901.817 740.575 900.677 741.048Q899.537 741.521 898.363 741.904Q897.19 742.286 895.989 742.575Q894.789 742.863 893.57 743.057C884.86 744.417 875.061 743.647 866.243 743.661L814.072 743.581L666.25 744.116L264.387 744.595L186.359 744.623C175.199 744.632 132.36 746.021 124.333 743.104C107.031 736.815 104.507 724.043 94.3854 710.812C87.4983 701.809 80.0258 696.037 70.2144 690.612C82.3592 684.901 91.1123 678.043 98.5951 666.783C101.55 662.337 104.316 657.689 107.942 653.744C113.247 647.973 119.686 644.7 127.388 643.403C136.488 641.872 146.163 642.562 155.379 642.566L197.48 642.517L325.445 642.287C346.427 642.152 367.574 642.551 388.522 641.504C387.735 639.147 386.871 636.91 385.873 634.634C388.578 630.425 391.001 626.033 393.485 621.691C394.399 625.027 395.533 628.311 396.607 631.599C394.08 633.147 391.438 634.596 389.202 636.551C389.375 637.696 389.393 637.77 390.192 638.604C393.135 639.579 396.397 638.17 399.209 637.257C400.042 638.847 400.576 640.125 402.403 640.629C405.407 641.458 409.881 639.276 412.509 637.864C428.351 629.35 436.083 608.145 440.887 591.81Z"/>
	<path fill="#60241F" transform="scale(3.53076 3.53076)" d="M300.219 663.13Q301.074 663.083 301.93 663.1Q302.786 663.117 303.639 663.198Q304.491 663.279 305.335 663.424Q306.179 663.569 307.01 663.776Q307.841 663.983 308.654 664.252Q309.467 664.521 310.257 664.85Q311.048 665.179 311.812 665.566Q312.575 665.954 313.308 666.397C320.538 670.695 324.953 678.301 326.768 686.338C328.985 696.153 327.888 706.27 322.432 714.842C318.076 721.685 312.517 725.304 304.624 727.007C298.608 727.627 292.978 726.478 287.944 723.024C281.393 718.53 277.676 711.232 276.274 703.58C274.46 693.68 276.095 682.599 281.982 674.279C286.539 667.839 292.522 664.424 300.219 663.13Z"/>
	<path fill="#FEFEFE" transform="scale(3.53076 3.53076)" d="M299.143 677.092C301.624 676.796 304.119 676.756 306.464 677.731C310.232 679.296 312.822 682.406 314.309 686.14C316.541 691.745 316.496 698.758 313.958 704.255C311.76 709.015 308.566 711.372 303.747 713.106C301.398 713.569 299.29 713.292 297.066 712.417C293.172 710.886 290.505 707.806 288.867 704.019C286.546 698.655 286.316 692.535 288.548 687.106C290.692 681.892 294.005 679.118 299.143 677.092Z"/>
	<path fill="#60241F" transform="scale(3.53076 3.53076)" d="M654.4 663.081C659.08 662.584 663.402 663.177 667.654 665.275C674.16 668.486 678.683 674.239 681.046 681C684.488 690.848 684.684 704.541 679.835 713.952C676.086 721.228 669.869 724.901 662.359 727.3C656.998 728.009 651.761 727.399 646.949 724.814C640.822 721.524 636.732 715.711 634.768 709.144C631.797 699.203 632.458 685.8 637.46 676.592C641.266 669.587 646.821 665.293 654.4 663.081Z"/>
	<path fill="#FEFEFE" transform="scale(3.53076 3.53076)" d="M657.19 676.555C659.457 676.868 661.352 677.24 663.298 678.502C667.153 681.002 669.422 685.184 670.388 689.588C671.683 695.49 671.248 703.024 667.892 708.145C665.535 711.741 662.745 713.169 658.626 713.945C656.867 713.823 655.204 713.558 653.59 712.805C649.922 711.094 647.486 707.634 646.202 703.893C644.118 697.817 644.374 689.903 647.467 684.233C649.703 680.134 652.768 677.859 657.19 676.555Z"/>
	<path fill="#60241F" transform="scale(3.53076 3.53076)" d="M800.593 663.675C805.255 663.739 809.576 664.923 813.456 667.558C820.237 672.161 824.539 679.91 826 687.858C827.88 698.08 826.162 708.857 820.084 717.414C815.65 723.656 809.967 727.061 802.483 728.305C797.621 728.47 793.07 727.193 788.994 724.509C782.367 720.147 778.331 712.561 776.961 704.886C775.162 694.801 776.592 682.799 782.688 674.325C787.192 668.064 793.046 664.776 800.593 663.675Z"/>
	<path fill="#FEFEFE" transform="scale(3.53076 3.53076)" d="M799.198 677.511C801.824 677.458 804.083 677.493 806.443 678.78C810.662 681.081 813.188 685.517 814.294 690.066C815.745 696.032 815.07 703.389 811.678 708.623C809.93 711.32 807.191 713.648 804.029 714.391C801.49 714.775 799.485 714.935 797.037 713.93C793.226 712.367 790.605 709.161 789.088 705.409C786.749 699.629 786.887 692.625 789.323 686.898C791.391 682.037 794.348 679.388 799.198 677.511Z"/>
	<path fill="#60241F" transform="scale(3.53076 3.53076)" d="M380.468 663.654C391.41 663.803 404.341 661.631 413.43 669.211C419.624 674.377 422.361 682.357 423.051 690.167C423.998 700.886 422.292 710.548 415.294 718.957C405.412 727.57 392.256 726.051 380.002 725.709C379.879 713.945 380.052 702.162 380.089 690.397C380.117 681.508 379.858 672.521 380.468 663.654Z"/>
	<path fill="#FEFEFE" transform="scale(3.53076 3.53076)" d="M391.43 676.496C396.196 676.429 401.007 676.287 405.235 678.884C408.892 681.131 411.09 684.879 412.004 689.006C413.489 695.711 412.059 703.011 408.496 708.808C408.395 708.918 408.299 709.032 408.194 709.138C403.585 713.787 397.487 713.011 391.484 712.978L391.43 676.496Z"/>
	<path fill="#60241F" transform="scale(3.53076 3.53076)" d="M153.365 663.567C161.89 663.785 175.62 661.445 182.536 667.179C186.067 670.107 188.11 675.223 188.362 679.73C188.647 684.85 186.229 688.444 183.011 692.087C186.557 694.391 189.123 696.495 190.792 700.513C193.147 706.183 191.995 712.927 189.572 718.357C188.79 719.568 187.993 720.707 186.958 721.72C180.192 728.341 162.655 725.997 153.539 725.881L153.365 663.567Z"/>
	<path fill="#FEFEFE" transform="scale(3.53076 3.53076)" d="M165.475 699.704C169.283 699.619 172.959 699.299 176.596 700.643C178.263 701.259 179.965 702.281 180.568 704.062C181.405 706.53 180.238 708.854 178.975 710.916C174.729 713.633 170.257 713.177 165.409 713.186Q165.369 706.445 165.475 699.704Z"/>
	<path fill="#FEFEFE" transform="scale(3.53076 3.53076)" d="M165.065 676.707C167.357 676.603 170.083 676.384 172.325 676.919C174.051 677.331 175.751 678.155 176.547 679.844C177.634 682.155 176.538 684.8 175.664 686.965C172.271 688.364 168.598 688.005 165.001 687.952Q164.991 682.329 165.065 676.707Z"/>
	<path fill="#60241F" transform="scale(3.53076 3.53076)" d="M362.022 663.584Q367.815 663.529 373.608 663.633C374.808 684.18 373.335 704.925 374.366 725.503C370.465 725.941 366.616 725.87 362.697 725.803Q353.041 707.956 343.698 689.943C343.302 701.883 343.737 713.98 344.015 725.922C339.948 726.087 335.917 726.011 331.849 725.893C332.884 717.831 332.525 709.547 332.536 701.429L332.653 663.569L342.929 663.574Q351.902 682.396 362.059 700.607L362.022 663.584Z"/>
	<path fill="#60241F" transform="scale(3.53076 3.53076)" d="M686.098 664.032C691.921 663.958 698.059 663.503 703.84 664.025C708.583 664.453 712.915 666.142 715.921 669.971C719.815 674.932 720.377 682.116 719.661 688.199C718.925 694.456 716.58 698.626 711.699 702.447C715.089 711.055 720.257 718.899 723.652 727.534C720.363 727.905 712.742 728.931 709.953 727.267C708.059 723.192 702.226 708.41 698.308 706.592C696.528 709.228 697.439 723.549 697.173 727.645C693.35 727.962 689.439 727.832 685.601 727.85Q685.888 711.927 685.898 696.001C685.877 689.17 684.453 669.258 686.098 664.032Z"/>
	<path fill="#FEFEFE" transform="scale(3.53076 3.53076)" d="M697.641 677.189C699.805 677.09 702.705 676.758 704.7 677.656C706.571 678.498 708.209 680.062 708.774 682.071C709.663 685.238 708.329 688.905 706.729 691.603C703.704 693.914 701.2 693.654 697.582 693.686Q697.564 685.437 697.641 677.189Z"/>
	<path fill="#60241F" transform="scale(3.53076 3.53076)" d="M830.882 663.566L841.496 663.523C846.642 675.707 852.331 687.635 857.97 699.596C857.831 687.689 857.255 675.557 857.855 663.675L868.488 663.598C868.82 671.212 869.718 724.013 868.514 726.675C868.208 727.351 866.899 727.692 866.231 727.992L859.248 727.98C852.859 717.188 846.066 700.959 841.032 689.192L840.912 727.668C837.323 727.884 833.68 727.819 830.082 727.867C829.626 715.601 830.014 703.204 829.972 690.92C829.945 682.787 829.27 674.104 830.02 666.057C830.12 664.992 830.33 664.457 830.882 663.566Z"/>
	<path fill="#60241F" transform="scale(3.53076 3.53076)" d="M519.411 663.633L528.439 663.62C529.118 671.393 528.724 679.437 528.706 687.239L528.643 726.011C524.85 726.642 521.019 726.463 517.189 726.404C516.849 718.561 517.111 710.595 517.097 702.74Q507.675 702.618 498.252 702.74Q498.035 714.116 498.167 725.493C494.451 725.84 490.744 725.738 487.017 725.684C487.022 718.454 486.093 666.619 487.3 664.043L488.825 663.752L498.123 663.711C498.304 672.477 498.136 681.253 498.321 690.023L517.274 690.191C517.251 681.149 517.084 672.452 519.411 663.633Z"/>
	<path fill="#60241F" transform="scale(3.53076 3.53076)" d="M195.58 663.572L229.809 663.524L229.9 676.498L206.955 676.624C206.874 680.574 206.915 684.534 206.9 688.486L227.367 688.506L227.395 700.891C221.033 700.851 214.25 700.366 207.949 701.095C207.154 702.472 207.365 703.818 207.351 705.375L207.378 712.774L229.945 712.723L229.901 725.937L195.487 726.018C195.179 705.252 195.163 684.337 195.58 663.572Z"/>
	<path fill="#60241F" transform="scale(3.53076 3.53076)" d="M591.697 663.506L600.956 663.545C600.47 673.745 600.664 684.011 600.726 694.22L618.087 694.244L618.089 663.583L629.787 663.551Q629.55 689.713 629.86 715.875C629.942 717.869 630.057 719.879 630.039 721.875C630.028 723.179 629.801 724.804 628.706 725.665C626.511 727.39 620.856 726.336 618.049 726.144C617.278 719.448 617.716 712.315 617.72 705.562C612.776 705.534 607.861 705.505 602.924 705.824C602.824 709.4 604.107 722.772 601.917 725.04C599.58 727.459 594.49 726.446 591.505 726.255C591.4 705.445 590.744 684.285 591.697 663.506Z"/>
	<path fill="#60241F" transform="scale(3.53076 3.53076)" d="M536.49 663.68C547.802 663.807 559.131 663.671 570.444 663.651C570.53 667.815 570.484 671.988 570.496 676.154C563.056 676.778 555.459 676.507 547.992 676.503L548.005 689.518C550.752 689.573 553.464 689.537 556.209 689.43C558.91 689.325 563.104 688.741 565.082 691.03C567.463 693.787 566.473 698.869 566.305 702.21Q556.982 702.118 547.659 702.162L547.638 709.125L547.738 713.303Q559.065 713.223 570.39 713.431L570.527 726.48L536.433 726.4Q536.289 695.04 536.49 663.68Z"/>
	<path fill="#60241F" transform="scale(3.53076 3.53076)" d="M772.869 663.256L773.524 663.229C775.167 665.087 775.701 671.091 776.334 673.759C770.536 687.699 762.842 700.987 756.536 714.726L776.289 714.72C776.115 718.978 775.895 723.166 775.323 727.396C766.061 727.819 756.655 727.563 747.375 727.606C746.317 727.656 745.298 727.577 744.244 727.503C743.521 726.93 743.185 726.448 742.899 725.585C741.585 721.628 742.777 716.123 744.116 712.242C747.616 702.102 757.161 686.398 762.278 676.013L744.071 676.122Q744.033 669.82 744.147 663.519C753.598 662.841 763.375 663.332 772.869 663.256Z"/>
	<path fill="#60241F" transform="scale(3.53076 3.53076)" d="M264.263 663.474L277.143 663.547C272.759 672.44 268.88 681.491 265.118 690.662C259.334 702.842 261.114 712.723 261.02 725.721C257.289 725.861 253.535 725.806 249.801 725.834C249.434 718.154 250.668 709.878 249.41 702.312C248.11 694.498 235.36 674.205 231.655 663.574L244.41 663.499C247.647 671.484 250.738 679.549 254.582 687.266Q259.566 675.428 264.263 663.474Z"/>
	<path fill="#60241F" transform="scale(3.53076 3.53076)" d="M441.182 663.585Q461.904 663.783 482.627 663.73C482.759 668.047 482.708 672.376 482.716 676.695Q475.175 676.678 467.634 676.782C467.451 687.799 467.647 698.854 467.661 709.875C467.637 715.071 467.652 720.233 467.928 725.424C464.12 725.772 460.312 725.633 456.496 725.552L456.513 676.701Q448.86 676.683 441.209 676.479C440.995 672.175 441.095 667.89 441.182 663.585Z"/>
	<path fill="#60241F" transform="scale(3.53076 3.53076)" d="M726.479 664.09C730.246 663.824 734.085 663.949 737.863 663.94C737.868 671.601 738.955 724.511 737.378 727.699C733.664 727.954 729.859 727.842 726.132 727.887L726.094 684.641C726.093 678.133 725.28 670.423 726.479 664.09Z"/>
	<path fill="#F7D724" transform="scale(3.53076 3.53076)" d="M113.066 678.603C114.143 678.524 115.242 678.548 116.309 678.737C120.821 679.541 123.613 682.49 125.98 686.186C126.113 690.05 126.222 693.405 123.885 696.739C121.46 700.198 117.569 701.305 113.619 701.934C111.109 701.509 108.816 700.795 106.623 699.467C103.707 697.702 101.092 694.991 100.31 691.577C99.7375 689.076 100.189 686.529 101.686 684.433C104.409 680.619 108.705 679.419 113.066 678.603Z"/>
	<path fill="#F7D724" transform="scale(3.53076 3.53076)" d="M901.372 680.062C903.278 680.151 904.515 681.247 906.277 681.63C907.991 682.002 909.969 681.073 911.713 681.039C913.619 681.002 916.291 682.457 917.556 683.861C918.832 685.275 919.274 686.977 919.085 688.862C918.514 694.57 914.078 698.307 909.864 701.567C907.873 702.742 905.699 703.68 903.619 704.69C899.657 701.313 895.587 697.475 893.747 692.469C892.854 690.041 892.537 687.229 893.795 684.865C895.393 681.861 898.3 680.923 901.372 680.062Z"/>
	<path fill="#E73734" transform="scale(3.53076 3.53076)" d="M377.233 441.936C377.908 439.977 379.031 438.007 380.067 436.212C389.189 420.404 404.197 408.041 421.943 403.275C439.243 398.629 458.366 401.709 473.78 410.62C498.391 424.846 504.857 443.187 511.748 468.972C516.305 451.283 521.47 435.512 535.035 422.566C551.211 407.129 571.837 401.541 593.682 401.994C611.181 402.828 626.738 411.235 638.483 424.046C650.892 437.582 655.406 454.806 654.555 472.865C653.04 504.992 634.236 530.759 611.193 551.538C595.621 565.58 579.041 578.521 563.024 592.054C555.194 598.669 547.222 605.234 540.096 612.616C529.248 623.855 520.486 635.991 512.11 649.127C502.911 634.938 492.394 621.505 480.064 609.879C449.587 581.143 396.043 546.326 377.789 509.446C369.616 492.934 367.592 475.137 371.476 457.141C372.612 451.878 374.311 446.501 377.233 441.936Z"/>
	<path fill="#C12731" transform="scale(3.53076 3.53076)" d="M593.682 401.994C611.181 402.828 626.738 411.235 638.483 424.046C650.892 437.582 655.406 454.806 654.555 472.865C653.04 504.992 634.236 530.759 611.193 551.538C595.621 565.58 579.041 578.521 563.024 592.054C555.194 598.669 547.222 605.234 540.096 612.616C529.248 623.855 520.486 635.991 512.11 649.127C502.911 634.938 492.394 621.505 480.064 609.879C449.587 581.143 396.043 546.326 377.789 509.446C369.616 492.934 367.592 475.137 371.476 457.141C372.612 451.878 374.311 446.501 377.233 441.936C376.966 445.863 376.103 449.827 375.692 453.76Q375.339 457.405 375.311 461.066Q375.284 464.728 375.581 468.377Q375.879 472.026 376.499 475.635Q377.12 479.244 378.058 482.783C386.375 514.764 417.779 540.937 445.445 556.997C457.713 564.118 482.59 577.446 496.003 579.655C499.512 580.233 502.982 580.004 506.406 579.058C515.628 576.512 524.94 570.387 533.557 566.11C568.323 548.853 600.648 533.196 620.8 497.827C629.975 481.722 636.008 461.23 631.418 442.744C630.282 438.171 627.591 434.793 626.663 431.321C626.233 429.712 625.829 427.859 625.054 426.373C619.829 416.362 604.152 405.524 593.682 401.994Z"/>
	<path fill="#FEFEFE" transform="scale(3.53076 3.53076)" d="M437.212 415.691C448.825 414.22 461.987 417.74 472.311 422.871C458.592 420.744 446.55 422.396 433.895 428.255C415.295 436.867 401.875 451.152 394.736 470.372C391.387 479.836 391.043 488.805 390.781 498.725C388.936 493.576 387.688 488.423 387.01 482.991C385.02 467.038 388.838 448.955 398.968 436.208C408.542 424.16 422.085 417.415 437.212 415.691Z"/>
	<path fill="#FEFEFE" transform="scale(3.53076 3.53076)" d="M573.15 416.187C574.836 415.923 576.726 415.915 578.432 415.912C594.759 415.883 614.886 421.399 626.806 433.145C620.69 430.434 614.576 427.685 608.099 425.936C586.102 419.994 565.242 425.832 545.994 436.978C532.363 446.118 523.464 458.025 515.331 472.006C517.734 460.472 520.775 450.259 528.167 440.879C539.175 426.909 555.601 418.327 573.15 416.187Z"/>
	<path fill="#FEFEFE" transform="scale(3.53076 3.53076)" d="M944.675 309.937C945.068 310.192 944.823 309.986 945.149 310.773Q944.623 313.011 944.028 315.232Q943.433 317.452 942.768 319.653Q942.104 321.853 941.371 324.032Q940.638 326.211 939.837 328.366Q939.036 330.521 938.168 332.65Q937.3 334.778 936.366 336.879Q935.432 338.98 934.433 341.05Q933.433 343.12 932.37 345.158Q931.306 347.196 930.179 349.2Q929.052 351.203 927.863 353.171Q926.674 355.138 925.424 357.068Q924.174 358.997 922.864 360.886Q921.554 362.775 920.185 364.623Q918.817 366.47 917.392 368.273Q915.966 370.077 914.485 371.835Q913.004 373.593 911.468 375.304C889.594 399.468 854.982 414.687 823.233 420.618C805.094 424.007 787.184 424.951 768.82 425.856C770.997 423.195 772.783 420.239 774.969 417.561C785.778 414.075 799.111 411.918 810.563 408.604C843.992 398.929 890.994 379.018 913.965 352.145C910.186 353.69 906.108 358.631 902.807 361.284C900.337 363.268 897.698 365.07 895.048 366.803C875.795 379.392 855.001 388.851 833.223 396.154C814.205 402.532 794.548 408.148 774.86 412.027C757.637 415.421 740.311 418.212 723.117 421.78C712.454 423.993 701.468 425.959 691.503 430.511C686.034 433.409 681.515 436.665 678.596 442.271C679.804 448.284 681.763 454.142 682.953 460.176Q683.262 461.762 683.507 463.359Q683.751 464.956 683.931 466.562Q684.111 468.167 684.225 469.779Q684.34 471.391 684.389 473.006Q684.438 474.621 684.422 476.236Q684.406 477.852 684.325 479.466Q684.243 481.079 684.096 482.689Q683.95 484.298 683.738 485.899Q683.526 487.501 683.25 489.093Q682.973 490.685 682.633 492.264Q682.292 493.844 681.888 495.408Q681.483 496.972 681.016 498.519Q680.549 500.066 680.019 501.592Q679.49 503.119 678.899 504.623Q678.308 506.126 677.657 507.605Q677.005 509.084 676.295 510.535C664.075 536.026 642.337 553.781 615.869 562.982C637.675 542.273 654.465 524.855 662.313 494.539C667.307 475.251 667.831 449.709 657.375 432.039C675.294 409.298 715.012 405.109 742 400.924Q756.746 398.602 771.368 395.6C791.784 391.32 814.963 384.67 834.316 376.91Q844.74 372.815 854.899 368.102Q865.059 363.388 874.917 358.073Q884.775 352.759 894.296 346.861Q903.817 340.964 912.967 334.506C923.823 326.688 933.926 317.896 944.675 309.937Z"/>
	<path fill="#FEFEFE" transform="scale(3.53076 3.53076)" d="M79.0879 310.073C110.637 335.126 139.932 356.225 177.59 371.341Q196.014 378.57 214.939 384.361Q233.865 390.151 253.18 394.467C268.384 397.95 283.978 400.377 299.321 403.198C315.04 406.089 332.152 408.802 346.481 416.19C355.034 420.6 362.223 426.685 367.354 434.856C356.416 459.036 355.058 482.268 364.376 507.271C373.191 530.92 391.327 546.738 408.166 564.491C380.336 551.553 356.02 533.925 345.088 503.927C338.899 486.941 338.199 463.711 346.209 447.161C347.041 445.441 348.002 443.71 349.124 442.166C329.297 422.772 291.496 419.724 265.358 414.541C250.898 411.674 236.287 408.209 221.985 404.63C198.517 398.757 174.865 391.213 153.057 380.637C135.402 372.076 120.013 360.348 105.316 347.489C110.135 353.554 116.496 358.502 122.516 363.329C158.897 392.492 204.379 405.998 249.182 416.003C249.751 420.238 251.574 423.081 253.888 426.531C249.194 425.928 244.391 425.8 239.666 425.508C217.223 423.294 195.147 418.272 173.383 412.502C167.45 410.687 161.52 408.93 155.842 406.397C128.54 394.217 105.618 371.426 91.6952 345.23C85.6763 333.905 81.7433 322.608 79.0879 310.073Z"/>
	<path fill="#FEFEFE" transform="scale(3.53076 3.53076)" d="M78.2357 392.037C101.882 398.606 126.6 400.952 150.464 406.515C158.066 408.287 165.605 411.104 173.07 413.418L173.383 412.502C195.147 418.272 217.223 423.294 239.666 425.508C244.391 425.8 249.194 425.928 253.888 426.531L254.144 428.051C257.802 431.187 261.476 434.074 265.47 436.779C253.575 437.342 245.067 441.298 234.174 444.973C227.359 447.272 219.029 445.97 211.967 445.292C188.098 442.997 163.401 438.629 140.918 430.072C129.528 425.737 119.86 420.022 109.074 414.568L108.551 414.841C111.58 417.693 116.915 420.077 120.609 422.109C150.315 438.446 191.624 449.209 225.442 449.549L222.874 453.469C224.966 458.182 227.442 460.841 231.177 464.336C220.343 464.926 209.314 464.616 198.461 464.544C186.409 464.464 173.222 465.024 161.402 462.821C152.8 461.217 144.01 457.745 136.01 454.217C115.98 445.381 97.815 431.557 87.04 412.185C83.469 405.765 80.8719 398.876 78.2357 392.037Z"/>
	<path fill="#552514" transform="scale(3.53076 3.53076)" d="M173.383 412.502C195.147 418.272 217.223 423.294 239.666 425.508L239.091 427.57C216.962 426.259 194.222 419.648 173.07 413.418L173.383 412.502Z"/>
	<path fill="#552514" transform="scale(3.53076 3.53076)" d="M239.666 425.508C244.391 425.8 249.194 425.928 253.888 426.531L254.144 428.051C249.103 428.033 244.122 427.95 239.091 427.57L239.666 425.508Z"/>
	<path fill="#FEFEFE" transform="scale(3.53076 3.53076)" d="M944.788 391.569L946.261 391.595L946.788 392.456C946.514 395.506 944.933 398.544 943.742 401.332C938.337 413.981 931.286 424.461 921.286 433.959C904.622 449.787 880.555 460.727 857.936 464.323C850.403 465.521 842.601 465.354 834.991 465.579C820.351 466.011 805.839 466.179 791.195 465.851C793.06 463.903 794.869 461.912 796.421 459.699C797.828 457.691 800.911 454.02 800.464 451.558L799.031 450.783L798.94 450.336Q805.548 450.037 812.131 449.396C844.946 446.228 878.599 438.162 907.188 421.262C910.888 419.075 916.373 416.455 919.073 413.173L918.975 412.811C917.497 413.45 916.108 414.554 914.767 415.458C886.301 434.1 848.821 441.695 815.396 444.699C808.695 445.301 800.893 446.491 794.213 445.726C788.413 445.062 782.438 441.648 776.889 439.783C770.8 437.736 764.634 436.526 758.329 435.396L765.068 430.474C794.292 428.33 819.99 424.268 848.285 416.152C856.463 413.806 863.972 409.278 872.195 407.236C879.87 405.329 887.807 404.081 895.557 402.48Q920.253 397.388 944.788 391.569Z"/>
	<path fill="#FEFEFE" transform="scale(3.53076 3.53076)" d="M162.305 465.212C169.66 464.185 178.02 465.299 185.499 465.419C200.988 465.667 216.537 465.876 232.014 465.176C240.088 469.908 248.809 473.946 257.776 476.681C253.599 478.701 249.677 481.011 245.197 482.344C239.616 484.004 233.28 484.595 227.512 485.391C201.611 488.961 174.64 490.548 148.656 486.866C136.887 485.198 125.745 482.003 114.315 478.864C116.148 480.521 120.493 481.597 122.899 482.38C141.148 488.324 160.126 491.056 179.273 491.576C198.905 492.59 220.097 491.595 239.416 487.883C239.267 488.014 239.115 488.142 238.97 488.278C235.743 491.283 231.219 496.633 230.496 501.096C230.25 502.608 230.874 504.203 230.797 505.778C230.207 506.098 230.092 506.18 229.52 506.427C224.135 508.752 217.135 509.471 211.373 510.549C184.018 515.672 161.594 516.425 135.118 506.299C119.616 500.37 100.716 487.477 93.7714 471.869C100.58 470.076 108.125 469.815 115.124 469.091Q138.66 466.484 162.305 465.212Z"/>
	<path fill="#FEFEFE" transform="scale(3.53076 3.53076)" d="M858.072 466.23C868.844 466.017 879.708 466.919 890.459 467.513Q910.45 468.589 930.455 469.374C924.645 483.455 911.184 495.368 897.939 502.391C882.877 510.378 855.813 516.538 838.466 515.924C830.615 515.647 822.333 513.795 814.597 512.485C808.6 511.47 802.107 510.666 796.298 508.861L796.473 508.081C797.835 506.65 799.282 505.731 800.959 504.701C795.768 499.171 790.229 494.081 784.624 488.979C799.194 491.011 813.63 492.206 828.321 492.902C855.739 493.427 881.32 490.999 907.005 480.871L906.744 480.486C901.249 482.141 895.836 483.874 890.236 485.161C861.265 491.818 829.931 490.582 800.681 486.573C788.721 484.934 778.089 484 767.643 477.475C771.11 476.733 774.634 475.705 777.821 474.134C781.924 472.112 786.212 468.856 790.733 467.915C797.962 466.41 807.034 467.519 814.494 467.4C829.017 467.168 843.546 466.535 858.072 466.23Z"/>
	<path fill="#FEFEFE" transform="scale(3.53076 3.53076)" d="M232.867 508.494C242.797 517.041 256.71 519.588 269.434 520.315C231.728 533.74 190.021 546.971 149.657 539.85L149.299 538.869L148.183 539.622C148.622 539.969 148.42 539.869 148.995 540.054C149.239 540.133 149.487 540.199 149.73 540.278C176.258 548.898 224.927 539.618 251.188 530.846C261.311 527.465 270.75 522.715 280.738 519.115C277.155 522.107 273.88 525.151 271.069 528.896C267.294 532.014 262.092 534.161 257.747 536.445C245.328 542.971 231.705 549.076 220.663 557.804C214.177 562.064 194.818 562.132 186.822 562.046C164.775 561.806 141.564 554.505 125.79 538.476C135.703 534.36 145.933 530.825 156.003 527.103C164.443 523.983 173.115 520.302 181.881 518.289C188.619 516.742 195.764 516.262 202.612 515.243Q210.3 514.172 217.876 512.482Q225.453 510.792 232.867 508.494Z"/>
	<path fill="#FEFEFE" transform="scale(3.53076 3.53076)" d="M795.333 509.925C805.941 514.214 824.882 514.615 836.887 517.179C847.983 519.548 859.183 524.491 869.903 528.259C878.776 531.377 888.106 533.883 896.724 537.625C882.411 551.97 862.251 561.309 841.975 561.984C828.577 562.429 807.088 560.184 794.752 554.189C787.746 550.783 781.133 545.698 774.451 541.633C768.171 537.813 760.505 534.163 755.145 529.136L747.719 522.361C780.056 533.077 840.688 549.381 873.902 540.322C866.219 540.825 858.719 541.661 850.992 541.452C821.055 540.644 791.702 530.216 763.281 521.783C775.421 521.33 785.86 517.442 795.333 509.925Z"/>
	<path fill="#FEFEFE" transform="scale(3.53076 3.53076)" d="M271.069 528.896L271.571 529.784C270.191 531.46 267.542 532.084 265.635 533.137C266.334 533.692 267.389 533.033 267.433 533.947C267.693 539.299 257.667 547.319 264.142 554.313C265.639 555.931 266.942 556.941 269.08 557.496C269.875 558.304 270.33 558.699 270.505 559.845L270.019 560.327L269.816 559.502C253.896 568.696 237.771 577.756 220.389 583.922C212.735 586.637 204.356 588.1 197.159 590.68L198.326 591.039L198.234 590.783C218.539 588.064 238.526 580.014 256.857 571.11C262.553 568.344 271.631 562.651 277.397 561.122C281.778 559.96 290.688 560.518 296.062 559.687Q281.003 569.953 266.818 581.397C260.248 586.618 255.089 593.443 247.187 596.735Q246.074 597.186 244.95 597.611Q243.827 598.035 242.693 598.432Q241.559 598.828 240.416 599.197Q239.273 599.566 238.122 599.907Q236.97 600.248 235.81 600.561Q234.651 600.873 233.484 601.158Q232.317 601.442 231.143 601.698Q229.97 601.954 228.79 602.181Q227.611 602.408 226.426 602.606Q225.241 602.805 224.052 602.974Q222.863 603.143 221.67 603.283Q220.478 603.424 219.282 603.535Q218.086 603.646 216.887 603.728Q215.689 603.81 214.489 603.862Q213.289 603.915 212.088 603.938Q210.887 603.962 209.686 603.956Q208.485 603.95 207.285 603.915Q206.084 603.879 204.885 603.815Q203.685 603.75 202.488 603.657Q201.291 603.563 200.096 603.44Q198.901 603.317 197.71 603.165Q196.518 603.013 195.331 602.832Q194.143 602.651 192.961 602.441Q191.778 602.231 190.601 601.992Q189.424 601.754 188.253 601.486Q187.082 601.219 185.918 600.923Q184.754 600.627 183.597 600.303Q182.441 599.979 181.293 599.626Q180.144 599.274 179.005 598.894Q177.866 598.514 176.736 598.106Q175.606 597.698 174.487 597.263Q173.367 596.827 172.259 596.365C177.082 591.82 182.801 587.817 188.025 583.722C198.969 575.141 210.535 565.692 222.467 558.553L220.663 557.804C231.705 549.076 245.328 542.971 257.747 536.445C262.092 534.161 267.294 532.014 271.069 528.896Z"/>
	<path fill="#552514" transform="scale(3.53076 3.53076)" d="M271.069 528.896L271.571 529.784C270.191 531.46 267.542 532.084 265.635 533.137C266.334 533.692 267.389 533.033 267.433 533.947C267.693 539.299 257.667 547.319 264.142 554.313C265.639 555.931 266.942 556.941 269.08 557.496C269.875 558.304 270.33 558.699 270.505 559.845L270.019 560.327L269.816 559.502C266.286 557.382 262.986 555.72 261.726 551.481C260.025 545.758 264.23 538.887 266.9 534.05C252.325 542.665 237.034 549.951 222.467 558.553L220.663 557.804C231.705 549.076 245.328 542.971 257.747 536.445C262.092 534.161 267.294 532.014 271.069 528.896Z"/>
	<path fill="#FEFEFE" transform="scale(3.53076 3.53076)" d="M761.27 536.81C768.008 539.549 774.803 544.535 781.102 548.25C787.644 552.109 794.446 555.6 800.89 559.605C819.178 570.972 836.758 583.887 853.765 597.07C843.604 601.715 830.763 604.035 819.64 604.467C810.701 604.814 801.435 603.835 792.734 601.769C787.43 600.509 781.357 599.051 776.556 596.376C767.892 591.551 756.072 576.697 748.084 569.338C745.124 566.679 742.139 564.184 738.943 561.813C741.915 561.671 744.892 561.595 747.865 561.492C770.186 574.345 809.145 593.453 835.024 592.31C829.561 591.074 823.966 590.934 818.457 589.488C795.959 583.585 773.94 571.697 754.136 559.724L768.834 555.319C766.351 548.966 764.53 542.884 761.27 536.81Z"/>
	<path fill="#FEFEFE" transform="scale(3.53076 3.53076)" d="M691.001 471.437C701.086 471.893 711.273 473.423 721.353 474.247C755.457 477.037 769.111 478.964 793.945 504.28C790.385 507.817 786.018 510.379 781.395 512.276C755.933 522.721 726.34 510.553 702.683 500.502C697.905 498.222 693.204 496.261 688.116 494.767C689.139 490.376 689.894 485.912 690.729 481.481C718.469 488.317 745.716 496.4 773.864 501.589L773.892 501.413C761.639 496.727 748.04 493.852 735.343 490.392C720.666 486.391 705.922 481.7 691.03 478.633L691.001 471.437Z"/>
	<path fill="#FEFEFE" transform="scale(3.53076 3.53076)" d="M314.962 554.615L315.206 555.122C310.689 560.928 307.198 566.453 304.579 573.383C303.07 577.375 301.853 581.978 299.66 585.637C297.339 589.51 292.716 592.974 289.356 595.983C276.409 607.575 262.62 619.644 246.904 627.328L247.495 626.809L247.53 627.562L247.697 627.217C265.293 621.455 286.449 602.945 300.159 590.757C300.143 596.493 300.046 599.485 304.298 603.807C304.951 604.472 304.829 604.533 304.966 605.412C303.384 608.578 300.243 611.431 297.86 614.068C291.893 620.674 284.794 627.415 277.535 632.57C271.753 632.992 224.525 633.257 221.863 631.998C221.435 630.796 221.488 630.672 222.077 629.518C222.991 627.727 237.302 615.656 240.155 613.031C243.739 609.733 247.278 606.437 250.51 602.784C253.567 599.327 256.382 595.571 259.674 592.337C266.215 585.91 274.21 580.528 281.501 574.984C288.942 569.328 296.59 562.666 304.847 558.274C307.991 556.601 311.564 555.644 314.962 554.615Z"/>
	<path fill="#FEFEFE" transform="scale(3.53076 3.53076)" d="M709.506 552.294C712.357 553.312 715.144 554.887 717.947 556.068C722.841 558.128 728.636 559.468 733.009 562.552C747.586 572.835 762.74 590.396 775.654 603.271L794.742 622.224C796.838 624.285 799.307 626.139 801.277 628.281C802.112 629.189 802.342 629.513 802.536 630.691L801.954 631.287C794.208 631.984 786.194 631.638 778.413 631.661C771.165 631.683 763.67 632.081 756.459 631.527C745.136 630.657 730.059 615.036 722.891 606.721C720.403 603.993 718.183 601.061 715.927 598.141C718.797 598.38 721.695 598.385 724.574 598.459C724.612 594.05 723.981 589.862 723.243 585.525C738.893 599.389 756.15 614.008 775.142 623.135C776.342 623.712 778.876 625.225 780.078 624.809C779.491 623.92 779.788 624.042 779.019 623.736C762.881 617.306 748.212 603.564 735.505 592.002C731.616 588.463 726.932 584.762 723.999 580.371C721.415 576.503 720.234 571.482 718.374 567.213C716.02 561.812 712.885 557.089 709.506 552.294Z"/>
	<path fill="#FEFEFE" transform="scale(3.53076 3.53076)" d="M328.772 474.706C330.388 474.484 332.146 474.536 333.783 474.458C333.817 478.047 333.973 481.642 334.074 485.229Q305.31 491.88 276.171 496.629C270.494 497.565 264.008 499.294 258.284 498.987C258.108 498.978 257.933 498.961 257.758 498.948L256.718 500.393L257.128 499.062L256.606 499.649C261.097 502.382 324.855 490.166 334.521 488.111L336.072 496.625C330.85 499.193 325.485 501.41 320.122 503.664L313.278 506.371C297.315 512.615 285.043 516.38 267.598 515.342C259.537 514.863 251.884 513.403 244.479 510.117C240.924 508.539 236.408 506.623 234.92 502.778C235.295 500.641 237.59 498.42 239.004 496.767C260.992 471.078 298.588 477.129 328.772 474.706Z"/>
	<path fill="#FEFEFE" transform="scale(3.53076 3.53076)" d="M229.669 453.572C248.482 443.15 267.846 440.346 289.04 440.344C305.373 440.792 322.202 444.487 337.902 448.895L336.761 453.502C336.151 455.32 335.774 457.9 334.626 459.382C325.974 459.761 317.26 459.118 308.614 458.751C304.256 458.566 299.691 458.025 295.369 458.661C295.252 458.678 295.135 458.693 295.017 458.709L296.205 458.661L296.13 458.427L295.585 458.613C298.4 460.18 313.503 459.461 313.908 460.222L309.86 460.538C317.579 462.142 326.657 461.509 334.531 461.622C334.216 464.803 334.071 467.994 333.904 471.186Q319.516 472.053 305.173 473.484C292.63 474.636 280.306 476.367 267.764 474.238C253.491 471.815 238.277 465.59 229.669 453.572Z"/>
	<path fill="#552514" transform="scale(3.53076 3.53076)" d="M309.86 460.538C301.485 460.639 292.976 459.735 284.612 459.207C275.142 458.608 265.529 458.317 256.119 457.084L256.339 456.874C274.156 456.388 292.19 457.427 310.005 458.035C317.726 458.298 327.132 457.594 334.626 459.382C325.974 459.761 317.26 459.118 308.614 458.751C304.256 458.566 299.691 458.025 295.369 458.661C295.252 458.678 295.135 458.693 295.017 458.709L296.205 458.661L296.13 458.427L295.585 458.613C298.4 460.18 313.503 459.461 313.908 460.222L309.86 460.538Z"/>
	<path fill="#FEFEFE" transform="scale(3.53076 3.53076)" d="M720.931 440.418C739.988 438.652 761.063 439.228 779.332 445.625C785.028 447.619 790.408 450.402 795.793 453.102C783.613 467.196 772.159 472.346 753.643 473.756C732.921 475.334 711.26 470.932 690.708 468.29C690.139 465.398 689.488 462.511 689.229 459.571C702.447 459.285 715.683 458.388 728.886 457.697C743.334 456.941 757.858 456.366 772.232 454.656C765.022 453.79 757.548 454.274 750.291 454.33C729.726 454.488 709.174 456.013 688.631 456.082C687.934 453.786 685.788 448.869 686.817 446.603C687.096 445.989 688.406 445.871 689.038 445.7C699.71 443.978 710.142 441.505 720.931 440.418Z"/>
	<path fill="#FEFEFE" transform="scale(3.53076 3.53076)" d="M687.241 497.766C693.067 499.341 698.774 502.39 704.306 504.786C710.961 507.668 717.705 510.346 724.373 513.2C742.297 520.873 756.776 535.026 764.042 553.179C758.224 554.309 752.356 555.374 746.452 555.938C724.824 558.005 707.859 545.294 692.033 532.144C687.486 527.996 682.669 524.087 677.983 520.092C679.937 516.647 681.459 512.916 683.086 509.306Q700.027 519.795 717.376 529.596C724.926 533.89 732.492 538.504 740.48 541.925L740.973 541.718C738.374 539.914 735.403 538.596 732.712 536.903L702.489 517.806C696.758 514.201 690.626 510.843 685.262 506.711C685.089 506.577 684.918 506.44 684.746 506.305L687.241 497.766Z"/>
	<path fill="#FEFEFE" transform="scale(3.53076 3.53076)" d="M336.93 501.454L337.4 501.622C339.17 503.569 340.307 508.512 341.252 511.096C330.988 517.28 320.923 523.765 310.594 529.848C305.527 532.832 299.422 535.426 294.756 538.864C301.086 538.476 334.389 518.786 342.39 513.994L346.819 522.53C341.917 529.471 335.909 534.675 329.251 539.88Q322.055 545.243 314.025 549.252C304.458 553.961 280.125 559.459 270.193 555.798C268.329 555.111 266.583 553.965 265.788 552.071C264.863 549.868 265.436 547.355 266.282 545.227C267.613 541.881 269.753 538.715 271.824 535.79C282.099 521.274 296.111 517.731 311.888 511.766Q324.535 506.915 336.93 501.454Z"/>
	<path fill="#FEFEFE" transform="scale(3.53076 3.53076)" d="M676.598 522.782C690.628 539.526 709.406 553.85 716.141 575.409C717.899 581.033 718.73 586.956 719.713 592.754C705.151 594.159 693.999 593.071 682.381 583.412C670.573 573.594 662.748 559.941 656.234 546.239C659.239 543.295 662.177 540.095 665.38 537.377C666.092 536.82 666.597 535.947 667.131 535.218C670.356 531.129 673.659 527.084 676.598 522.782Z"/>
	<path fill="#552514" transform="scale(3.53076 3.53076)" d="M665.38 537.377C666.092 536.82 666.597 535.947 667.131 535.218C675.695 544.808 682.994 555.549 691.277 565.397C692.749 567.147 701.985 577.06 702.01 577.904C698.238 575.171 694.856 570.969 691.734 567.499C682.868 557.645 674.649 546.784 665.38 537.377Z"/>
	<path fill="#FEFEFE" transform="scale(3.53076 3.53076)" d="M350.225 527.337C352.51 528.267 357.495 535.091 359.467 537.324C350.672 548.88 340.333 559.631 332.108 571.567C334.401 571.092 358.351 543.928 361.987 539.675Q366.928 544.214 372.088 548.502C368.22 555.32 364.292 561.883 359.439 568.071C348.591 580.996 330.466 590.979 314.328 595.543C312.346 596.104 309.695 596.705 307.857 595.42C306.559 594.512 306.126 592.799 306.024 591.304C305.028 576.706 320.507 555.771 330.319 546.011C336.821 539.543 343.979 534.206 350.225 527.337Z"/>
	<path fill="#FEFEFE" transform="scale(3.53076 3.53076)" d="M654.014 548.008C654.386 548.412 654.509 548.513 654.83 549.048C657.277 553.115 658.997 558.303 660.963 562.655C669.675 581.946 674.616 596.451 668.87 617.632Q665.757 616.906 662.758 615.801Q659.758 614.697 656.918 613.23C640.925 605.039 634.04 592.416 628.644 576.008L624.71 565.396L636.432 559.742C640.538 565.695 654.08 593.26 658.016 595.725C658.163 595.817 658.334 595.868 658.493 595.939L658.534 596.556L658.073 595.909L658.557 595.598C655.524 593.537 642.323 564.242 638.945 558.396C644.138 555.129 649.08 551.646 654.014 548.008Z"/>
	<path fill="#FEFEFE" transform="scale(3.53076 3.53076)" d="M375.384 551.343Q381.519 555.519 387.925 559.266C384.121 567.673 378.773 575.551 374.487 583.735L374.875 583.979Q382.202 572.061 388.976 559.82L397.642 564.27C394.154 574.719 390.49 584.6 384.625 594.009C378.831 602.934 371.003 609.583 362.176 615.328C360.05 616.712 357.968 618.57 355.505 619.271C354.19 619.059 353.338 618.836 352.491 617.723C351.097 615.891 350.89 613.047 350.671 610.837C349.224 596.234 353.66 592.759 355.628 580.41C355.653 580.256 355.673 580.102 355.695 579.948C364.165 571.242 369.92 562.118 375.384 551.343Z"/>
	<path fill="#FEFEFE" transform="scale(3.53076 3.53076)" d="M401.164 566.025C405.356 567.731 409.8 568.91 413.934 570.74C420.454 573.627 425.774 579.096 430.928 583.897C428.355 597.333 423.325 610.697 415.622 622.038C413.649 624.457 411.654 627.55 409.124 629.386C407.92 630.259 406.546 630.842 405.034 630.4C403.252 629.878 402.013 628.188 401.133 626.658C390.431 608.05 395.965 585.322 401.164 566.025Z"/>
	<path fill="#FEFEFE" transform="scale(3.53076 3.53076)" d="M679.198 589.513C682.144 590.651 684.99 592.535 687.854 593.913C695.746 597.709 702.651 598.472 711.259 598.987C720.617 610.119 729.917 621.4 739.949 631.933L690.853 631.954C686.142 627.829 682.361 622.638 678.569 617.684C677.385 615.987 676.298 614.212 675.178 612.472C675.851 604.9 675.607 597.413 675.299 589.834C683.816 600.348 692.66 609.968 702.236 619.522C705.264 622.544 708.341 626.209 711.889 628.602C709.722 624.511 699.417 614.726 695.755 610.51C689.961 603.838 684.422 596.633 679.198 589.513Z"/>
	<path fill="#FEFEFE" transform="scale(3.53076 3.53076)" d="M620.372 567.034C620.853 567.232 621.179 567.478 621.395 567.991C622.865 571.475 623.451 576.503 624.307 580.277C629.403 602.726 626.141 611.9 617.527 632.316C606.171 625.353 600.923 611.821 595.847 600.126C593.904 594.972 592.079 589.866 590.539 584.574C594.761 580.92 599.171 577.494 603.55 574.031C604.643 580.657 606.05 597.78 608.205 602.83C607.029 592.772 606.428 582.641 605.093 572.61C609.716 570.154 615.404 568.731 620.372 567.034Z"/>
	<path fill="#FEFEFE" transform="scale(3.53076 3.53076)" d="M348.877 585.996L349.241 586.443C349.21 586.645 349.192 586.85 349.147 587.05C346.916 596.829 321.01 626.766 312.178 632.83C305.065 633.294 297.722 632.95 290.582 632.97L290.238 632.698L290.265 631.835C295.646 623.681 305.654 607.866 313.717 602.947C317.067 600.903 321.672 600.173 325.352 598.678C333.787 595.249 341.31 590.996 348.877 585.996Z"/>
	<path fill="#FEFEFE" transform="scale(3.53076 3.53076)" d="M253.803 417.689C283.42 425.429 307.173 425.94 335.816 440.326L336.789 439.825C338.265 440.76 340.588 441.643 341.141 443.268C340.164 446.43 338.701 449.393 337.822 452.566C337.631 453.257 337.716 452.989 337.275 453.731L336.761 453.502L337.902 448.895C322.202 444.487 305.373 440.792 289.04 440.344C289.948 439.702 289.513 439.889 290.676 439.607C290.962 439.538 291.25 439.481 291.537 439.419L291.761 439.014C290.699 439.158 290.295 439.084 289.285 438.838L289.206 438.393L290.329 438.25C275.702 434.812 262.228 431.133 253.803 417.689Z"/>
	<path fill="#552514" transform="scale(3.53076 3.53076)" d="M289.04 440.344C289.948 439.702 289.513 439.889 290.676 439.607C290.962 439.538 291.25 439.481 291.537 439.419L291.761 439.014C290.699 439.158 290.295 439.084 289.285 438.838L289.206 438.393L290.329 438.25Q308.199 440.076 325.852 443.405C327.859 443.793 337.292 446.633 338.616 446.328C339.077 446.221 339.385 445.775 339.769 445.498C340.303 444.312 340.232 444.387 339.782 443.152C338.504 442.087 337.231 441.198 335.816 440.326L336.789 439.825C338.265 440.76 340.588 441.643 341.141 443.268C340.164 446.43 338.701 449.393 337.822 452.566C337.631 453.257 337.716 452.989 337.275 453.731L336.761 453.502L337.902 448.895C322.202 444.487 305.373 440.792 289.04 440.344Z"/>
	<path fill="#FEFEFE" transform="scale(3.53076 3.53076)" d="M687.529 443.78C686.529 443.831 686.667 443.945 685.728 443.358C685.677 442.319 685.692 441.994 686.3 441.083C694.282 429.134 751.726 422.026 768.063 418.212C767.393 419.384 766.659 420.478 765.863 421.569C756.222 434.769 735.45 436.757 720.47 439.009L720.931 440.418C710.142 441.505 699.71 443.978 689.038 445.7L687.529 443.78Z"/>
	<path fill="#552514" transform="scale(3.53076 3.53076)" d="M687.529 443.78C697.211 441.443 710.442 439.603 720.47 439.009L720.931 440.418C710.142 441.505 699.71 443.978 689.038 445.7L687.529 443.78Z"/>
	<path fill="#FEFEFE" transform="scale(3.53076 3.53076)" d="M631.096 598.879C631.421 599.253 631.752 599.622 632.063 600.008C635.955 604.851 640.816 608.596 644.741 613.335C648.979 618.452 651.982 624.602 655.635 630.145C654.043 625.491 651.911 620.984 649.956 616.472C655.173 619.169 661.499 622.479 667.489 622.623C669.612 622.674 671.703 622.245 673.841 622.324L675.559 624.64C677.545 627.304 679.579 629.757 681.875 632.159C667.784 632.817 653.522 632.443 639.415 632.463C635.76 626.959 632.14 621.458 629.024 615.626Q629.932 607.237 631.096 598.879Z"/>
	<path fill="#FEFEFE" transform="scale(3.53076 3.53076)" d="M390.234 599.916C391.068 600.849 392.327 615.834 392.697 618.134C390.257 623.365 387.047 628.186 383.902 633.01C374.576 633.377 365.207 633.189 355.875 633.148C355.389 633.101 354.933 632.886 354.475 632.723C354.689 630.275 356.768 627.216 357.478 624.677L357.643 624.067C371.453 619.939 381.097 610.797 390.234 599.916Z"/>
	<path fill="#FEFEFE" transform="scale(3.53076 3.53076)" d="M345.864 597.929C345.475 603.306 345.547 608.188 346.496 613.508C341.101 620.222 335.625 626.723 329.655 632.937C324.77 633.007 319.874 632.94 314.989 632.937L314.527 632.822C314.473 631.53 321.104 626.397 322.458 625.19C331.245 617.358 339.03 607.498 345.864 597.929Z"/>
	<path fill="#FEFEFE" transform="scale(3.53076 3.53076)" d="M347.475 619.271C348.257 619.641 347.982 619.412 348.563 620.114C351.141 623.222 351.861 623.66 355.687 624.529C355.699 624.679 355.732 624.83 355.725 624.981C355.664 626.182 354.926 627.171 354.169 628.046C351.726 630.865 350.461 632.822 346.625 633.132L335.878 633.015C339.331 628.212 343.511 623.658 347.475 619.271Z"/>
	<path fill="#60241F" transform="scale(3.53076 3.53076)" d="M503.43 301.703C531.371 300.423 575.554 303.17 597.388 321.77C602.754 326.342 606.541 332.079 607.011 339.284C607.462 346.191 605.304 352.692 600.739 357.891C584.929 375.898 545.404 379.4 522.753 380.976C493.01 381.401 451.297 381.139 427.714 360.808C422.218 356.07 418.334 350.415 417.878 342.94C417.479 336.38 419.6 330.681 423.997 325.834C441.321 306.737 478.763 302.953 503.43 301.703ZM453.893 340.591C467.416 349.997 499.897 351.212 516.625 350.928C535.472 350.548 555.631 348.319 573.054 340.847C553.108 333.859 532.539 331.296 511.464 331.735C488.64 332.31 476.049 334.077 453.893 340.591Z"/>
	<path fill="#E73734" transform="scale(3.53076 3.53076)" d="M500.841 313.216C524.523 311.154 570.431 314.351 589.063 329.25C592.434 331.945 595.459 335.455 595.854 339.926C596.202 343.863 594.552 347.544 592.023 350.48C579.608 364.895 544.153 368.65 525.625 369.965C500.783 370.985 454.192 369.411 435.255 352.502C432.123 349.705 429.394 346.174 429.248 341.815C429.127 338.205 430.699 335.027 433.122 332.427C447.238 317.288 480.876 314.31 500.841 313.216ZM453.893 340.591C467.416 349.997 499.897 351.212 516.625 350.928C535.472 350.548 555.631 348.319 573.054 340.847C553.108 333.859 532.539 331.296 511.464 331.735C488.64 332.31 476.049 334.077 453.893 340.591Z"/>
	<path fill="#60241F" transform="scale(3.53076 3.53076)" d="M502.808 320.714C522.991 319.819 564.685 322.127 581.247 333.544C583.651 335.201 585.864 337.56 586.235 340.578C586.513 342.839 585.582 344.836 584.104 346.493C573.913 357.919 539.117 361.289 523.625 361.982C500.707 362.645 464.47 361.786 444.925 349.687C442.342 348.087 438.506 345.461 438.029 342.238C437.74 340.283 438.402 338.665 439.649 337.191C449.922 325.053 486.776 321.628 502.808 320.714ZM453.893 340.591C467.416 349.997 499.897 351.212 516.625 350.928C535.472 350.548 555.631 348.319 573.054 340.847C553.108 333.859 532.539 331.296 511.464 331.735C488.64 332.31 476.049 334.077 453.893 340.591Z"/>
	<path fill="#60241F" transform="scale(3.53076 3.53076)" d="M611.535 240.476C611.569 240.804 611.681 241.132 611.636 241.459C611.471 242.653 587.408 296.627 586.224 298.067C585.21 299.301 583.492 300.208 581.85 300.138C579.652 300.045 577.839 298.065 576.294 296.699C574.776 295.105 572.399 293.121 572.263 290.802C572.197 289.662 574.166 287.885 574.948 286.935Q585.893 273.786 596.438 260.314C601.511 253.746 606.305 246.914 611.535 240.476Z"/>
	<path fill="#60241F" transform="scale(3.53076 3.53076)" d="M681.018 324.077L681.42 324.527C679.839 327.219 633.137 354.23 629.018 355.512C627.455 355.998 626.778 355.497 625.41 354.842C622.778 350.788 622.537 346.992 622.436 342.311C628.644 339.542 635.597 337.852 642.094 335.87L681.018 324.077Z"/>
	<path fill="#60241F" transform="scale(3.53076 3.53076)" d="M512.01 212.796C512.308 213.169 512.398 213.224 512.575 213.683C514.007 217.405 514.701 232.375 515.302 237.317C516.645 248.359 518.92 259.629 519.606 270.706C519.701 272.233 519.785 274.045 519.013 275.429C517.8 277.604 515.289 278.254 513.043 278.749C510.443 278.542 507.527 278.093 505.741 275.963C504.926 274.99 504.571 273.837 504.535 272.577C504.39 267.445 505.661 261.84 506.391 256.747C508.308 243.379 511.556 226.586 511.991 213.47L512.01 212.796Z"/>
	<path fill="#60241F" transform="scale(3.53076 3.53076)" d="M414.934 243.797C415.103 243.889 415.284 243.964 415.443 244.073C416.004 244.46 451.591 291.423 451.78 292.076C451.205 293.835 449.87 295.046 448.641 296.374C447.369 297.563 446.083 298.738 444.581 299.635C443.173 300.475 441.973 300.76 440.347 300.376C435.189 297.063 418.006 252.137 414.934 243.797Z"/>
	<path fill="#60241F" transform="scale(3.53076 3.53076)" d="M340.842 322.944C347.324 323.695 392.317 337.82 397.824 340.675C398.982 341.275 399.839 342.076 400.088 343.421C400.612 346.257 399.057 348.759 397.668 351.086C396.478 352.366 395.078 354.1 393.278 354.43C391.421 354.771 345.026 325.561 340.842 322.944Z"/>
</svg>
